<svg xmlns="http://www.w3.org/2000/svg" width="980" height="520" viewBox="0 0 980 520">
  <rect width="100%" height="100%" fill="#F8FAFC"/>
  <text x="64" y="34" font-size="24" font-weight="800" fill="#0F172A">Serie A rating distribution after elite model</text>
  <text x="64" y="56" font-size="13" fill="#64748B">Elite-season access to 90+ ratings, non-elite players compressed · n=7344 · 90+=58</text>
  <line x1="64" y1="355.00" x2="952" y2="355.00" stroke="#E2E8F0" stroke-width="1" /><text x="54" y="359.00" text-anchor="end" font-size="12" fill="#64748B">390</text><line x1="64" y1="260.00" x2="952" y2="260.00" stroke="#E2E8F0" stroke-width="1" /><text x="54" y="264.00" text-anchor="end" font-size="12" fill="#64748B">780</text><line x1="64" y1="165.00" x2="952" y2="165.00" stroke="#E2E8F0" stroke-width="1" /><text x="54" y="169.00" text-anchor="end" font-size="12" fill="#64748B">1169</text><line x1="64" y1="70.00" x2="952" y2="70.00" stroke="#E2E8F0" stroke-width="1" /><text x="54" y="74.00" text-anchor="end" font-size="12" fill="#64748B">1559</text>
  <line x1="64" y1="450" x2="952" y2="450" stroke="#CBD5E1" stroke-width="1.5" />
  <line x1="64" y1="70" x2="64" y2="450" stroke="#CBD5E1" stroke-width="1.5" />
  <rect x="64.00" y="450.00" width="30.31" height="0.00" rx="4" fill="#94A3B8" /><rect x="98.31" y="450.00" width="30.31" height="0.00" rx="4" fill="#94A3B8" /><rect x="132.62" y="450.00" width="30.31" height="0.00" rx="4" fill="#94A3B8" /><rect x="166.92" y="450.00" width="30.31" height="0.00" rx="4" fill="#94A3B8" /><rect x="201.23" y="231.85" width="30.31" height="218.15" rx="4" fill="#94A3B8" /><rect x="235.54" y="159.21" width="30.31" height="290.79" rx="4" fill="#94A3B8" /><rect x="269.85" y="304.48" width="30.31" height="145.52" rx="4" fill="#94A3B8" /><rect x="304.15" y="70.00" width="30.31" height="380.00" rx="4" fill="#94A3B8" /><rect x="338.46" y="143.12" width="30.31" height="306.88" rx="4" fill="#94A3B8" /><rect x="372.77" y="315.94" width="30.31" height="134.06" rx="4" fill="#94A3B8" /><rect x="407.08" y="375.90" width="30.31" height="74.10" rx="4" fill="#94A3B8" /><rect x="441.38" y="391.01" width="30.31" height="58.99" rx="4" fill="#94A3B8" /><rect x="475.69" y="362.25" width="30.31" height="87.75" rx="4" fill="#94A3B8" /><rect x="510.00" y="441.47" width="30.31" height="8.53" rx="4" fill="#94A3B8" /><rect x="544.31" y="419.53" width="30.31" height="30.47" rx="4" fill="#94A3B8" /><rect x="578.62" y="434.64" width="30.31" height="15.36" rx="4" fill="#94A3B8" /><rect x="612.92" y="428.79" width="30.31" height="21.21" rx="4" fill="#94A3B8" /><rect x="647.23" y="450.00" width="30.31" height="0.00" rx="4" fill="#94A3B8" /><rect x="681.54" y="448.78" width="30.31" height="1.22" rx="4" fill="#008CFF" /><rect x="715.85" y="447.08" width="30.31" height="2.92" rx="4" fill="#008CFF" /><rect x="750.15" y="444.88" width="30.31" height="5.12" rx="4" fill="#008CFF" /><rect x="784.46" y="446.83" width="30.31" height="3.17" rx="4" fill="#008CFF" /><rect x="818.77" y="450.00" width="30.31" height="0.00" rx="4" fill="#C8A45D" /><rect x="853.08" y="448.78" width="30.31" height="1.22" rx="4" fill="#C8A45D" /><rect x="887.38" y="446.83" width="30.31" height="3.17" rx="4" fill="#C8A45D" /><rect x="921.69" y="448.54" width="30.31" height="1.46" rx="4" fill="#C8A45D" />
  <text x="79.15" y="488" text-anchor="middle" font-size="12" fill="#475569">70</text><text x="147.77" y="488" text-anchor="middle" font-size="12" fill="#475569">72</text><text x="216.38" y="488" text-anchor="middle" font-size="12" fill="#475569">74</text><text x="285.00" y="488" text-anchor="middle" font-size="12" fill="#475569">76</text><text x="353.62" y="488" text-anchor="middle" font-size="12" fill="#475569">78</text><text x="422.23" y="488" text-anchor="middle" font-size="12" fill="#475569">80</text><text x="490.85" y="488" text-anchor="middle" font-size="12" fill="#475569">82</text><text x="559.46" y="488" text-anchor="middle" font-size="12" fill="#475569">84</text><text x="628.08" y="488" text-anchor="middle" font-size="12" fill="#475569">86</text><text x="696.69" y="488" text-anchor="middle" font-size="12" fill="#475569">88</text><text x="765.31" y="488" text-anchor="middle" font-size="12" fill="#475569">90</text><text x="833.92" y="488" text-anchor="middle" font-size="12" fill="#475569">92</text><text x="902.54" y="488" text-anchor="middle" font-size="12" fill="#475569">94</text><text x="936.85" y="488" text-anchor="middle" font-size="12" fill="#475569">95</text>
  <text x="490.0" y="512" text-anchor="middle" font-size="13" font-weight="700" fill="#334155">Rating</text>
  <text x="18" y="260.0" transform="rotate(-90 18 260.0)" text-anchor="middle" font-size="13" font-weight="700" fill="#334155">Players</text>
  <text x="952" y="38" text-anchor="end" font-size="12" fill="#334155">Gold: 92+ · Blue: 88-91</text>
</svg>
