<svg xmlns="http://www.w3.org/2000/svg" width="980" height="520" viewBox="0 0 980 520">
  <rect width="100%" height="100%" fill="#F8FAFC"/>
  <text x="64" y="34" font-size="24" font-weight="800" fill="#0F172A">Serie A all-time rating distribution</text>
  <text x="64" y="56" font-size="13" fill="#64748B">Source: merged European Soccer Database + Top5 stats · Percentile-based FIFA-like ratings · n=7344</text>
  <line x1="64" y1="355.00" x2="952" y2="355.00" stroke="#E2E8F0" stroke-width="1" /><text x="54" y="359.00" text-anchor="end" font-size="12" fill="#64748B">149</text><line x1="64" y1="260.00" x2="952" y2="260.00" stroke="#E2E8F0" stroke-width="1" /><text x="54" y="264.00" text-anchor="end" font-size="12" fill="#64748B">298</text><line x1="64" y1="165.00" x2="952" y2="165.00" stroke="#E2E8F0" stroke-width="1" /><text x="54" y="169.00" text-anchor="end" font-size="12" fill="#64748B">448</text><line x1="64" y1="70.00" x2="952" y2="70.00" stroke="#E2E8F0" stroke-width="1" /><text x="54" y="74.00" text-anchor="end" font-size="12" fill="#64748B">597</text>
  <line x1="64" y1="450" x2="952" y2="450" stroke="#CBD5E1" stroke-width="1.5" />
  <line x1="64" y1="70" x2="64" y2="450" stroke="#CBD5E1" stroke-width="1.5" />
  <rect x="64.00" y="259.68" width="30.31" height="190.32" rx="4" fill="#94A3B8" /><rect x="98.31" y="70.64" width="30.31" height="379.36" rx="4" fill="#94A3B8" /><rect x="132.62" y="70.00" width="30.31" height="380.00" rx="4" fill="#94A3B8" /><rect x="166.92" y="70.64" width="30.31" height="379.36" rx="4" fill="#94A3B8" /><rect x="201.23" y="70.00" width="30.31" height="380.00" rx="4" fill="#94A3B8" /><rect x="235.54" y="70.64" width="30.31" height="379.36" rx="4" fill="#94A3B8" /><rect x="269.85" y="70.00" width="30.31" height="380.00" rx="4" fill="#94A3B8" /><rect x="304.15" y="70.64" width="30.31" height="379.36" rx="4" fill="#94A3B8" /><rect x="338.46" y="259.68" width="30.31" height="190.32" rx="4" fill="#94A3B8" /><rect x="372.77" y="332.88" width="30.31" height="117.12" rx="4" fill="#94A3B8" /><rect x="407.08" y="216.40" width="30.31" height="233.60" rx="4" fill="#94A3B8" /><rect x="441.38" y="216.40" width="30.31" height="233.60" rx="4" fill="#94A3B8" /><rect x="475.69" y="216.40" width="30.31" height="233.60" rx="4" fill="#94A3B8" /><rect x="510.00" y="332.88" width="30.31" height="117.12" rx="4" fill="#94A3B8" /><rect x="544.31" y="371.71" width="30.31" height="78.29" rx="4" fill="#38BDF8" /><rect x="578.62" y="294.69" width="30.31" height="155.31" rx="4" fill="#38BDF8" /><rect x="612.92" y="294.69" width="30.31" height="155.31" rx="4" fill="#38BDF8" /><rect x="647.23" y="371.71" width="30.31" height="78.29" rx="4" fill="#38BDF8" /><rect x="681.54" y="426.45" width="30.31" height="23.55" rx="4" fill="#008CFF" /><rect x="715.85" y="403.53" width="30.31" height="46.47" rx="4" fill="#008CFF" /><rect x="750.15" y="402.90" width="30.31" height="47.10" rx="4" fill="#008CFF" /><rect x="784.46" y="403.53" width="30.31" height="46.47" rx="4" fill="#008CFF" /><rect x="818.77" y="426.45" width="30.31" height="23.55" rx="4" fill="#008CFF" /><rect x="853.08" y="437.91" width="30.31" height="12.09" rx="4" fill="#008CFF" /><rect x="887.38" y="427.09" width="30.31" height="22.91" rx="4" fill="#008CFF" /><rect x="921.69" y="437.91" width="30.31" height="12.09" rx="4" fill="#008CFF" />
  <text x="79.15" y="488" text-anchor="middle" font-size="12" fill="#475569">70</text><text x="147.77" y="488" text-anchor="middle" font-size="12" fill="#475569">72</text><text x="216.38" y="488" text-anchor="middle" font-size="12" fill="#475569">74</text><text x="285.00" y="488" text-anchor="middle" font-size="12" fill="#475569">76</text><text x="353.62" y="488" text-anchor="middle" font-size="12" fill="#475569">78</text><text x="422.23" y="488" text-anchor="middle" font-size="12" fill="#475569">80</text><text x="490.85" y="488" text-anchor="middle" font-size="12" fill="#475569">82</text><text x="559.46" y="488" text-anchor="middle" font-size="12" fill="#475569">84</text><text x="628.08" y="488" text-anchor="middle" font-size="12" fill="#475569">86</text><text x="696.69" y="488" text-anchor="middle" font-size="12" fill="#475569">88</text><text x="765.31" y="488" text-anchor="middle" font-size="12" fill="#475569">90</text><text x="833.92" y="488" text-anchor="middle" font-size="12" fill="#475569">92</text><text x="902.54" y="488" text-anchor="middle" font-size="12" fill="#475569">94</text><text x="936.85" y="488" text-anchor="middle" font-size="12" fill="#475569">95</text>
  <text x="490.0" y="512" text-anchor="middle" font-size="13" font-weight="700" fill="#334155">Rating</text>
  <text x="18" y="260.0" transform="rotate(-90 18 260.0)" text-anchor="middle" font-size="13" font-weight="700" fill="#334155">Players</text>
  <text x="952" y="38" text-anchor="end" font-size="12" fill="#334155">88+ are intentionally rare</text>
</svg>
